<mxfile host="app.diagrams.net" agent="Mozilla/5.0 (Macintosh; Intel Mac OS X 10_15_7) AppleWebKit/537.36 (KHTML, like Gecko) Chrome/131.0.0.0 Safari/537.36 Edg/131.0.0.0" version="26.0.6">
  <diagram name="第 1 页" id="n8JJjOLDLe9rcJy96AEA">
    <mxGraphModel dx="983" dy="606" grid="1" gridSize="10" guides="1" tooltips="1" connect="1" arrows="1" fold="1" page="1" pageScale="1" pageWidth="827" pageHeight="1169" math="0" shadow="0">
      <root>
        <mxCell id="0" />
        <mxCell id="1" parent="0" />
        <mxCell id="u_dm2N5r6sfythl7uCtS-5" value="&lt;article data-identifier-application__slash__x-doc-key=&quot;QvjnAARx5P54nXo5&quot; data-identifier-application__slash__x-cangjie-fragment=&quot;JTdCJTIya2xhc3MlMjIlM0ElMjJkb2N1bWVudCUyMiUyQyUyMmRhdGElMjIlM0ElN0IlN0QlMkMlMjJub2RlcyUyMiUzQSU1QiU3QiUyMmtsYXNzJTIyJTNBJTIyYmxvY2slMjIlMkMlMjJ0eXBlJTIyJTNBJTIyaGVhZGluZy00JTIyJTJDJTIyZGF0YSUyMiUzQSU3QiUyMnV1aWQlMjIlM0ElMjJtNXpiem9sYjZzNmkyamY4ejM5JTIyJTJDJTIyc3BhY2luZyUyMiUzQSU3QiUyMmJlZm9yZSUyMiUzQTE2JTJDJTIyYWZ0ZXIlMjIlM0E4JTJDJTIybGluZSUyMiUzQTAuODUyOTQxMTc2NDcwNTg4MiU3RCU3RCUyQyUyMm5vZGVzJTIyJTNBJTVCJTdCJTIya2xhc3MlMjIlM0ElMjJ0ZXh0JTIyJTJDJTIybGVhdmVzJTIyJTNBJTVCJTdCJTIya2xhc3MlMjIlM0ElMjJsZWFmJTIyJTJDJTIydGV4dCUyMiUzQSUyMiVFNiU5MiU5RSVFNSVCQSU5MyVFOCVCRiU4MSVFNyVBNyVCQiVFNSU5MCU4RSVFOCVBRiVCNyVFNiVCMSU4MiVFNiVCNSU4MSVFOCVCRCVBQyVFNSU5QiVCRSUyMiUyQyUyMm1hcmtzJTIyJTNBJTVCJTdCJTIya2xhc3MlMjIlM0ElMjJtYXJrJTIyJTJDJTIydHlwZSUyMiUzQSUyMmJvbGQlMjIlMkMlMjJkYXRhJTIyJTNBJTdCJTdEJTdEJTJDJTdCJTIya2xhc3MlMjIlM0ElMjJtYXJrJTIyJTJDJTIydHlwZSUyMiUzQSUyMnN6JTIyJTJDJTIyZGF0YSUyMiUzQSU3QiUyMnZhbHVlJTIyJTNBMTIlMkMlMjJzelVuaXQlMjIlM0ElMjJwdCUyMiU3RCU3RCU1RCU3RCU1RCU3RCU1RCUyQyUyMmNvbnRlbnRUeXBlJTIyJTNBJTIyY2FuZ2ppZS10ZXh0YmxvY2slMjIlN0QlNUQlN0Q=&quot; data-clipboard-cangjie=&quot;[&amp;quot;root&amp;quot;,{},[&amp;quot;h4&amp;quot;,{&amp;quot;uuid&amp;quot;:&amp;quot;m5zbzolb6s6i2jf8z39&amp;quot;,&amp;quot;spacing&amp;quot;:{&amp;quot;before&amp;quot;:16,&amp;quot;after&amp;quot;:8,&amp;quot;line&amp;quot;:0.8529411764705882}},[&amp;quot;span&amp;quot;,{&amp;quot;data-type&amp;quot;:&amp;quot;text&amp;quot;},[&amp;quot;span&amp;quot;,{&amp;quot;bold&amp;quot;:true,&amp;quot;sz&amp;quot;:12,&amp;quot;szUnit&amp;quot;:&amp;quot;pt&amp;quot;,&amp;quot;data-type&amp;quot;:&amp;quot;leaf&amp;quot;},&amp;quot;撞库迁移后请求流转图&amp;quot;]]]]&quot; class=&quot;4ever-article&quot;&gt;&lt;h4 style=&quot;font-size: 12pt; line-height: 85%; margin-top: 16px; margin-bottom: 8px; text-align: left; margin-left: 0px;&quot;&gt;&lt;span style=&quot;font-size: 12pt;&quot; data-type=&quot;text&quot;&gt;撞库迁移后请求流转图&lt;/span&gt;&lt;/h4&gt;&lt;/article&gt;" style="swimlane;childLayout=stackLayout;resizeParent=1;resizeParentMax=0;horizontal=1;startSize=20;horizontalStack=0;html=1;strokeColor=#788AA3;fontColor=#46495D;fillColor=#B2C9AB;" vertex="1" parent="1">
          <mxGeometry x="30" y="300" width="840" height="580" as="geometry" />
        </mxCell>
        <mxCell id="u_dm2N5r6sfythl7uCtS-6" value="渠道" style="swimlane;startSize=20;horizontal=0;html=1;strokeColor=#788AA3;fontColor=#46495D;fillColor=#B2C9AB;" vertex="1" parent="u_dm2N5r6sfythl7uCtS-5">
          <mxGeometry y="20" width="840" height="120" as="geometry" />
        </mxCell>
        <mxCell id="u_dm2N5r6sfythl7uCtS-7" value="分期乐" style="rounded=0;whiteSpace=wrap;html=1;strokeColor=#788AA3;fontColor=#46495D;fillColor=#B2C9AB;" vertex="1" parent="u_dm2N5r6sfythl7uCtS-6">
          <mxGeometry x="80" y="40" width="50" height="30" as="geometry" />
        </mxCell>
        <mxCell id="u_dm2N5r6sfythl7uCtS-8" value="还呗、小赢等" style="rounded=0;whiteSpace=wrap;html=1;strokeColor=#788AA3;fontColor=#46495D;fillColor=#B2C9AB;" vertex="1" parent="u_dm2N5r6sfythl7uCtS-6">
          <mxGeometry x="160" y="40" width="80" height="30" as="geometry" />
        </mxCell>
        <mxCell id="u_dm2N5r6sfythl7uCtS-9" value="马消" style="rounded=0;whiteSpace=wrap;html=1;strokeColor=#788AA3;fontColor=#46495D;fillColor=#B2C9AB;" vertex="1" parent="u_dm2N5r6sfythl7uCtS-6">
          <mxGeometry x="320" y="40" width="50" height="30" as="geometry" />
        </mxCell>
        <mxCell id="u_dm2N5r6sfythl7uCtS-10" value="度小满" style="rounded=0;whiteSpace=wrap;html=1;strokeColor=#788AA3;fontColor=#46495D;fillColor=#B2C9AB;" vertex="1" parent="u_dm2N5r6sfythl7uCtS-6">
          <mxGeometry x="384" y="40" width="50" height="30" as="geometry" />
        </mxCell>
        <mxCell id="u_dm2N5r6sfythl7uCtS-11" value="京东" style="rounded=0;whiteSpace=wrap;html=1;strokeColor=#788AA3;fontColor=#46495D;fillColor=#B2C9AB;" vertex="1" parent="u_dm2N5r6sfythl7uCtS-6">
          <mxGeometry x="450" y="40" width="50" height="30" as="geometry" />
        </mxCell>
        <mxCell id="u_dm2N5r6sfythl7uCtS-12" value="得物" style="rounded=0;whiteSpace=wrap;html=1;strokeColor=#788AA3;fontColor=#46495D;fillColor=#B2C9AB;" vertex="1" parent="u_dm2N5r6sfythl7uCtS-6">
          <mxGeometry x="520" y="40" width="50" height="30" as="geometry" />
        </mxCell>
        <mxCell id="u_dm2N5r6sfythl7uCtS-13" value="渠道对接层" style="swimlane;startSize=20;horizontal=0;html=1;strokeColor=#788AA3;fontColor=#46495D;fillColor=#B2C9AB;" vertex="1" parent="u_dm2N5r6sfythl7uCtS-5">
          <mxGeometry y="140" width="840" height="200" as="geometry" />
        </mxCell>
        <mxCell id="u_dm2N5r6sfythl7uCtS-14" style="edgeStyle=orthogonalEdgeStyle;rounded=0;orthogonalLoop=1;jettySize=auto;html=1;entryX=0.25;entryY=0;entryDx=0;entryDy=0;strokeColor=#788AA3;fontColor=#46495D;fillColor=#B2C9AB;" edge="1" parent="u_dm2N5r6sfythl7uCtS-13" source="u_dm2N5r6sfythl7uCtS-15" target="u_dm2N5r6sfythl7uCtS-42">
          <mxGeometry relative="1" as="geometry">
            <mxPoint x="265" y="70" as="targetPoint" />
          </mxGeometry>
        </mxCell>
        <mxCell id="u_dm2N5r6sfythl7uCtS-52" value="陪跑验证、切流" style="edgeLabel;html=1;align=center;verticalAlign=middle;resizable=0;points=[];" vertex="1" connectable="0" parent="u_dm2N5r6sfythl7uCtS-14">
          <mxGeometry x="-0.0262" y="1" relative="1" as="geometry">
            <mxPoint as="offset" />
          </mxGeometry>
        </mxCell>
        <mxCell id="u_dm2N5r6sfythl7uCtS-51" style="edgeStyle=orthogonalEdgeStyle;rounded=0;orthogonalLoop=1;jettySize=auto;html=1;entryX=0.5;entryY=0;entryDx=0;entryDy=0;dashed=1;" edge="1" parent="u_dm2N5r6sfythl7uCtS-13" source="u_dm2N5r6sfythl7uCtS-15" target="u_dm2N5r6sfythl7uCtS-49">
          <mxGeometry relative="1" as="geometry" />
        </mxCell>
        <mxCell id="u_dm2N5r6sfythl7uCtS-15" value="xyf-api-gateway(php)" style="rounded=0;whiteSpace=wrap;html=1;strokeColor=#788AA3;fontColor=#46495D;fillColor=#B2C9AB;" vertex="1" parent="u_dm2N5r6sfythl7uCtS-13">
          <mxGeometry x="88" y="20" width="120" height="30" as="geometry" />
        </mxCell>
        <mxCell id="u_dm2N5r6sfythl7uCtS-54" style="edgeStyle=orthogonalEdgeStyle;rounded=0;orthogonalLoop=1;jettySize=auto;html=1;dashed=1;" edge="1" parent="u_dm2N5r6sfythl7uCtS-13" source="u_dm2N5r6sfythl7uCtS-16" target="u_dm2N5r6sfythl7uCtS-50">
          <mxGeometry relative="1" as="geometry" />
        </mxCell>
        <mxCell id="u_dm2N5r6sfythl7uCtS-16" value="ugchanprod(java)" style="rounded=0;whiteSpace=wrap;html=1;strokeColor=#788AA3;fontColor=#46495D;fillColor=#B2C9AB;" vertex="1" parent="u_dm2N5r6sfythl7uCtS-13">
          <mxGeometry x="382" y="20" width="120" height="30" as="geometry" />
        </mxCell>
        <mxCell id="u_dm2N5r6sfythl7uCtS-18" style="edgeStyle=orthogonalEdgeStyle;rounded=0;orthogonalLoop=1;jettySize=auto;html=1;entryX=0.75;entryY=0;entryDx=0;entryDy=0;strokeColor=#788AA3;fontColor=#46495D;fillColor=#B2C9AB;" edge="1" parent="u_dm2N5r6sfythl7uCtS-13" source="u_dm2N5r6sfythl7uCtS-16" target="u_dm2N5r6sfythl7uCtS-42">
          <mxGeometry relative="1" as="geometry">
            <mxPoint x="325" y="70" as="targetPoint" />
          </mxGeometry>
        </mxCell>
        <mxCell id="u_dm2N5r6sfythl7uCtS-53" value="切流" style="edgeLabel;html=1;align=center;verticalAlign=middle;resizable=0;points=[];" vertex="1" connectable="0" parent="u_dm2N5r6sfythl7uCtS-18">
          <mxGeometry x="0.1917" y="1" relative="1" as="geometry">
            <mxPoint as="offset" />
          </mxGeometry>
        </mxCell>
        <mxCell id="u_dm2N5r6sfythl7uCtS-42" value="ugchanprod(java)" style="rounded=0;whiteSpace=wrap;html=1;strokeColor=#788AA3;fontColor=#46495D;fillColor=#B2C9AB;" vertex="1" parent="u_dm2N5r6sfythl7uCtS-13">
          <mxGeometry x="230" y="130" width="120" height="30" as="geometry" />
        </mxCell>
        <mxCell id="u_dm2N5r6sfythl7uCtS-49" value="xyf-api-gateway(php)" style="rounded=0;whiteSpace=wrap;html=1;strokeColor=#788AA3;fontColor=#46495D;fillColor=#B2C9AB;" vertex="1" parent="u_dm2N5r6sfythl7uCtS-13">
          <mxGeometry x="30" y="130" width="120" height="30" as="geometry" />
        </mxCell>
        <mxCell id="u_dm2N5r6sfythl7uCtS-50" value="xyf-api-gateway(php)" style="rounded=0;whiteSpace=wrap;html=1;strokeColor=#788AA3;fontColor=#46495D;fillColor=#B2C9AB;" vertex="1" parent="u_dm2N5r6sfythl7uCtS-13">
          <mxGeometry x="440" y="130" width="120" height="30" as="geometry" />
        </mxCell>
        <mxCell id="u_dm2N5r6sfythl7uCtS-19" value="下游数据服务层" style="swimlane;startSize=20;horizontal=0;html=1;strokeColor=#788AA3;fontColor=#46495D;fillColor=#B2C9AB;" vertex="1" parent="u_dm2N5r6sfythl7uCtS-5">
          <mxGeometry y="340" width="840" height="120" as="geometry" />
        </mxCell>
        <mxCell id="u_dm2N5r6sfythl7uCtS-44" value="cis" style="rounded=0;whiteSpace=wrap;html=1;strokeColor=#788AA3;fontColor=#46495D;fillColor=#B2C9AB;" vertex="1" parent="u_dm2N5r6sfythl7uCtS-19">
          <mxGeometry x="180" y="45" width="50" height="30" as="geometry" />
        </mxCell>
        <mxCell id="u_dm2N5r6sfythl7uCtS-45" value="apiopfcore" style="rounded=0;whiteSpace=wrap;html=1;strokeColor=#788AA3;fontColor=#46495D;fillColor=#B2C9AB;" vertex="1" parent="u_dm2N5r6sfythl7uCtS-19">
          <mxGeometry x="330" y="45" width="70" height="30" as="geometry" />
        </mxCell>
        <mxCell id="u_dm2N5r6sfythl7uCtS-27" value="决策引擎" style="swimlane;startSize=20;horizontal=0;html=1;strokeColor=#788AA3;fontColor=#46495D;fillColor=#B2C9AB;" vertex="1" parent="u_dm2N5r6sfythl7uCtS-5">
          <mxGeometry y="460" width="840" height="120" as="geometry" />
        </mxCell>
        <mxCell id="u_dm2N5r6sfythl7uCtS-28" value="决策接口" style="rounded=0;whiteSpace=wrap;html=1;strokeColor=#788AA3;fontColor=#46495D;fillColor=#B2C9AB;" vertex="1" parent="u_dm2N5r6sfythl7uCtS-27">
          <mxGeometry x="260" y="45" width="60" height="30" as="geometry" />
        </mxCell>
        <mxCell id="u_dm2N5r6sfythl7uCtS-29" style="edgeStyle=orthogonalEdgeStyle;rounded=0;orthogonalLoop=1;jettySize=auto;html=1;entryX=0.5;entryY=0;entryDx=0;entryDy=0;strokeColor=#788AA3;fontColor=#46495D;fillColor=#B2C9AB;" edge="1" parent="u_dm2N5r6sfythl7uCtS-5" source="u_dm2N5r6sfythl7uCtS-7" target="u_dm2N5r6sfythl7uCtS-15">
          <mxGeometry relative="1" as="geometry">
            <Array as="points">
              <mxPoint x="105" y="120" />
              <mxPoint x="148" y="120" />
            </Array>
          </mxGeometry>
        </mxCell>
        <mxCell id="u_dm2N5r6sfythl7uCtS-30" style="edgeStyle=orthogonalEdgeStyle;rounded=0;orthogonalLoop=1;jettySize=auto;html=1;entryX=0.5;entryY=0;entryDx=0;entryDy=0;strokeColor=#788AA3;fontColor=#46495D;fillColor=#B2C9AB;" edge="1" parent="u_dm2N5r6sfythl7uCtS-5" source="u_dm2N5r6sfythl7uCtS-8" target="u_dm2N5r6sfythl7uCtS-15">
          <mxGeometry relative="1" as="geometry">
            <Array as="points">
              <mxPoint x="200" y="120" />
              <mxPoint x="148" y="120" />
            </Array>
          </mxGeometry>
        </mxCell>
        <mxCell id="u_dm2N5r6sfythl7uCtS-38" style="edgeStyle=orthogonalEdgeStyle;rounded=0;orthogonalLoop=1;jettySize=auto;html=1;strokeColor=#788AA3;fontColor=#46495D;fillColor=#B2C9AB;" edge="1" parent="u_dm2N5r6sfythl7uCtS-5" source="u_dm2N5r6sfythl7uCtS-12" target="u_dm2N5r6sfythl7uCtS-16">
          <mxGeometry relative="1" as="geometry">
            <Array as="points">
              <mxPoint x="545" y="120" />
              <mxPoint x="442" y="120" />
            </Array>
          </mxGeometry>
        </mxCell>
        <mxCell id="u_dm2N5r6sfythl7uCtS-39" style="edgeStyle=orthogonalEdgeStyle;rounded=0;orthogonalLoop=1;jettySize=auto;html=1;entryX=0.5;entryY=0;entryDx=0;entryDy=0;strokeColor=#788AA3;fontColor=#46495D;fillColor=#B2C9AB;" edge="1" parent="u_dm2N5r6sfythl7uCtS-5" source="u_dm2N5r6sfythl7uCtS-11" target="u_dm2N5r6sfythl7uCtS-16">
          <mxGeometry relative="1" as="geometry">
            <Array as="points">
              <mxPoint x="475" y="120" />
              <mxPoint x="442" y="120" />
            </Array>
          </mxGeometry>
        </mxCell>
        <mxCell id="u_dm2N5r6sfythl7uCtS-40" style="edgeStyle=orthogonalEdgeStyle;rounded=0;orthogonalLoop=1;jettySize=auto;html=1;entryX=0.5;entryY=0;entryDx=0;entryDy=0;strokeColor=#788AA3;fontColor=#46495D;fillColor=#B2C9AB;" edge="1" parent="u_dm2N5r6sfythl7uCtS-5" source="u_dm2N5r6sfythl7uCtS-10" target="u_dm2N5r6sfythl7uCtS-16">
          <mxGeometry relative="1" as="geometry">
            <Array as="points">
              <mxPoint x="409" y="120" />
              <mxPoint x="442" y="120" />
            </Array>
          </mxGeometry>
        </mxCell>
        <mxCell id="u_dm2N5r6sfythl7uCtS-41" style="edgeStyle=orthogonalEdgeStyle;rounded=0;orthogonalLoop=1;jettySize=auto;html=1;entryX=0.5;entryY=0;entryDx=0;entryDy=0;strokeColor=#788AA3;fontColor=#46495D;fillColor=#B2C9AB;" edge="1" parent="u_dm2N5r6sfythl7uCtS-5" source="u_dm2N5r6sfythl7uCtS-9" target="u_dm2N5r6sfythl7uCtS-16">
          <mxGeometry relative="1" as="geometry">
            <Array as="points">
              <mxPoint x="345" y="120" />
              <mxPoint x="442" y="120" />
            </Array>
          </mxGeometry>
        </mxCell>
        <mxCell id="u_dm2N5r6sfythl7uCtS-46" style="edgeStyle=orthogonalEdgeStyle;rounded=0;orthogonalLoop=1;jettySize=auto;html=1;" edge="1" parent="u_dm2N5r6sfythl7uCtS-5" source="u_dm2N5r6sfythl7uCtS-42" target="u_dm2N5r6sfythl7uCtS-44">
          <mxGeometry relative="1" as="geometry">
            <Array as="points">
              <mxPoint x="290" y="350" />
              <mxPoint x="205" y="350" />
            </Array>
          </mxGeometry>
        </mxCell>
        <mxCell id="u_dm2N5r6sfythl7uCtS-47" style="edgeStyle=orthogonalEdgeStyle;rounded=0;orthogonalLoop=1;jettySize=auto;html=1;entryX=0.5;entryY=0;entryDx=0;entryDy=0;" edge="1" parent="u_dm2N5r6sfythl7uCtS-5" source="u_dm2N5r6sfythl7uCtS-42" target="u_dm2N5r6sfythl7uCtS-45">
          <mxGeometry relative="1" as="geometry">
            <Array as="points">
              <mxPoint x="290" y="350" />
              <mxPoint x="365" y="350" />
            </Array>
          </mxGeometry>
        </mxCell>
        <mxCell id="u_dm2N5r6sfythl7uCtS-48" style="edgeStyle=orthogonalEdgeStyle;rounded=0;orthogonalLoop=1;jettySize=auto;html=1;" edge="1" parent="u_dm2N5r6sfythl7uCtS-5" source="u_dm2N5r6sfythl7uCtS-42" target="u_dm2N5r6sfythl7uCtS-28">
          <mxGeometry relative="1" as="geometry" />
        </mxCell>
      </root>
    </mxGraphModel>
  </diagram>
</mxfile>
